# xmcd
#
# Track frame offsets:
# 150
# 29807
# 57570
# 83104
# 98725
# 165985
#
# Disc length: 2512 seconds
#
#
# Revision: 0
# Processed by: cddbd v1.5.2PL0 Copyright (c) Steve Scherf et al.
# Submitted via: FreeRIP 2.945 
#
DISCID=4609ce06
DTITLE=Parliament - Live [CD2]
DYEAR=1900
DGENRE=Funk
TTITLE0=This Is The Way We Funk With You
TTITLE1=Dr. Funkenstein
TTITLE2=Gamin On Ya!
TTITLE3=Tear The Roof Off The Sucker Medley
TTITLE4=Night Of The Thumpasorus People
TTITLE5=Fantasy Is Reality
EXTD=
EXTT0=
EXTT1=
EXTT2=
EXTT3=
EXTT4=
EXTT5=
PLAYORDER=
